<svg xmlns="http://www.w3.org/2000/svg" viewBox="0 0 800 400" enable-background="new 0 0 800 400"><style type="text/css">.st0{fill:#FFFFFF;}</style><path class="st0" d="M414.2 21.2c-5.7-6.5-10.4-13.7-14.2-21.2-3.8 7.5-8.5 14.7-14.2 21.2-35 40-94 45.3-134.7 13.1v266.1c.6 31 24.4 41.4 46.4 49.6l17.2 4.8c25.9 3.3 51 9.6 85.1 45.2.1-.1.1-.1.1-.2l.1.2c34.1-35.5 59.2-41.9 85.1-45.2l17.2-4.8c22-8.2 45.8-18.6 46.4-49.6v-266.1c-40.5 32.2-99.5 26.9-134.5-13.1zm65.4 131.4l-12.9-9.8-12.9 9.2 4.9-14.7-12.1-9.8h15l4.9-14.1 5 14.1h15.6l-12.5 9.9 5 15.2zm-18.2-71.3l4.9-14.1 4.9 14.1h15.6l-12.5 9.9 4.7 15.2-12.9-9.8-12.9 9.2 4.9-14.7-12.1-9.8h15.4zm-92.7-.9c19-30.7 56.1-29.8 65.5-29-4 1.9-11.3 5.8-20.1 13l-6.5-3.3-3 2.1 19.8 10.1 2.7-2.3-8-4.1c7.8-6.7 14.5-11.7 17.8-14.2 2.6 6.2 13.9 36.5-4.2 64.4-22.1 34.1-61.9 31-69.2 30.1 2.5-5.9 11.8-27 23.3-44.8l7.4 3.8c.6-1 1.1-1.9 1.7-2.8l-19.4-9.9c-.5.9-1 1.9-1.5 2.9l7.8 4c-11.1 18.2-18.8 38.2-21.2 44.9-2.8-7.1-11.5-34.8 7.1-64.9zm-40.6.9l4.9-14.1 5 14.1h15.6l-12.5 9.9 4.8 15.2-12.9-9.8-12.9 9.2 4.9-14.7-12.1-9.8h15.2zm0 46.1l4.9-14.1 5 14.1h15.6l-12.5 9.9 4.8 15.2-12.9-9.8-12.9 9.2 4.9-14.7-12.1-9.8h15.2zm-49.9-46.1l4.9-14.1 4.9 14.1h15.6l-12.5 9.9 4.7 15.2-12.9-9.8-12.9 9.2 4.9-14.7-12.1-9.8h15.4zm.4 46.1l4.9-14.1 5 14.1h15.6l-12.5 9.9 4.8 15.2-12.9-9.8-12.9 9.2 4.9-14.7-12.1-9.8h15.2zm255.5 163.2c-.5 28.4-22 38.1-41.8 45.5l-15.5 4.4c-23.3 3-45.9 8.9-76.7 41.5l-.1-.2-.1.2c-30.7-32.6-53.4-38.5-76.7-41.5l-15.5-4.4c-19.8-7.5-41.3-17.1-41.8-45.5v-127.8h268.3v127.8zm-22.8-209.3l4.9-14.1 5 14.1h15.6l-12.5 9.9 4.8 15.2-12.9-9.8-12.9 9.2 4.9-14.7-12.1-9.8h15.2zm0 46.1l4.9-14.1 5 14.1h15.6l-12.5 9.9 4.8 15.2-12.9-9.8-12.9 9.2 4.9-14.7-12.1-9.8h15.2zM410.2 86.6l-20.6-10.5c-.8.8-1.6 1.6-2.3 2.5l20.5 10.4 2.4-2.4zM402.8 94.7l-20.2-10.3-2.1 3 20 10.2c.7-1 1.5-2 2.3-2.9zM418.5 78.6l-20.3-10.4c-1 .8-2 1.7-2.9 2.5l20.5 10.5c.9-.9 1.8-1.8 2.7-2.6zM416 347.4v-20.3s-3.1-1.9-8-4.1v-65.4h12.4l3 8.3h13.3v-37.4h-13.3l-3.2 8.9h-12.2v-37.4h15.6l5.1 11.9h16.1v-32.2h-69v20.3h8.5v117c-5.2-.6-9.7-.9-9.7-.9v18.3s11.3 1.2 19.2 3.6c6.4 2 22.2 9.4 22.2 9.4zM288.3 287.9c-5.4-.3-10.2-.3-10.2-.3l1.6 20.6s11.3.5 19.5 2.5c6.6 1.7 23 8.7 23 8.7l-1.8-22.8s-3.2-1.9-8.4-4v-42.199999999999996l25.7 73.4 22.8 7.1v-130.9h6.6v-20.2h-37.199999999999996v20.2h6.9v49.5l-24.8-70.9v-.1h-30.5v20.2h6.8v89.19999999999999zM520.4 308.2v-44.7h-18.7v28.8c-6.3 1.4-13.1 3-18.7 4.6v-96.9l6.9-3.2v-17.1h-37.6v17.1l6.9 3.2v106.5c-4 2.1-7.5 4.1-10.2 5.9v23.1c7.5-4.3 26.2-14.9 35.2-18.6 17.5-7 36.2-8.7 36.2-8.7z"/></svg>