<svg xmlns="http://www.w3.org/2000/svg" viewBox="0 0 800 400" enable-background="new 0 0 800 400"><style type="text/css">.st0{fill:#FFFFFF;}</style><path class="st0" d="M689.9 25.6c-6.5-6.5-15.2-10.1-24.4-10.1h-148.4l85.3 142.4 7.8 1 4.5 6.5v6.1l5.5 1 4.9 6.8v5.9l5.5 1s5.5 5.9 5.5 6.2v13.3s12 11 22.8 15.3c7.5 2.9 8.4 14.9 12.7 21.5 5.9 9.1 13.6 13 12 18.2-3.9 14-18.2 37.4-31.6 38.7h-52.7v22.5h65.9c19.1 0 34.6-15.6 34.6-34.6v-237.3c.2-9.3-3.4-17.9-9.9-24.4zM336.8 299.5h-25.7c0-63.7 21.7-99.2 47.5-106 3.5-.7 1.9-18.2-2.6-23.4 0 0-12.4.3-15-.4-3.3-1-1-4.2-1-4.2l12-26-1.6-7.2h-44.6c-.6 0 36.8-25.7 36.8-25.7 1.9-67.6 71.2-72.9 113.1-45 24.8 16.6 26.8 49.1 24.8 71.9-.3 1.3-6.5.4-6.5.4s-4.2 24.7 6.9 24.7h48.8c19.9-.7 39.1 12.6 39.1 12.6l4.9-16.9-107-138.9h-332.1c-9.2 0-17.9 3.6-24.4 10.1-6.6 6.6-10.2 15.2-10.2 24.5v237.4c0 9.2 3.6 17.9 10.1 24.4s15.2 10.1 24.4 10.1h215.6c-5.4-9-11.4-19.3-13.3-22.4zm-165.4-26.4c-13.1 0-23.7-10.6-23.7-23.7s10.6-23.7 23.7-23.8c13.1 0 23.8 10.7 23.8 23.7-.1 13.1-10.7 23.7-23.8 23.8zM122.2 356.6l-.4 2.7h-.2l-.4-2.7-5.3-23.1h-10.9v50.5h8.3v-33.9h.5l.3 2.1 5.7 31.8h3.8l5.7-31.8.3-2.1h.5v33.9h8.3v-50.5h-10.9zM153.4 333.5l-9.2 50.5h8.7l1.7-10.3h8.6l1.7 10.3h8.7l-9.2-50.5h-11zm2.4 32.4l2.6-16 .2-1.3h.5l.2 1.3 2.6 16h-6.1zM181.2 373.5c0 1.2-.2 2-.7 2.5-1 1.1-2.3 1.4-4.1 1.2v7.3c5.3.3 8.8-.8 10.8-2.7 2.1-1.9 2.9-4.4 2.9-7.2v-41.2h-8.9v40.1zM216.2 334.6c-1.7-1-3.9-1.7-6.9-1.7-3 0-5.3.7-6.9 1.7-1.7 1-2.7 2.4-3.5 3.8-.9 1.6-1.4 3.4-1.5 5.4v29.8c.1 2.1.6 3.9 1.5 5.5.7 1.4 1.8 2.7 3.5 3.7 1.7 1.1 4 1.7 6.9 1.7 3 0 5.2-.6 6.9-1.7 1.7-1 2.8-2.3 3.6-3.7.9-1.6 1.4-3.4 1.5-5.5v-29.8c-.1-2-.6-3.9-1.5-5.4-.8-1.4-1.9-2.7-3.6-3.8zm-3.9 39c0 .8-.1 1.4-.3 1.9-.3 1-1.1 1.9-2.6 1.9-.7 0-1.3-.2-1.7-.6-.8-.8-1.2-1.7-1.2-3.2v-29.8c0-.7.1-1.3.3-1.9.3-.9 1.1-1.9 2.6-1.9.7 0 1.4.2 1.8.6.8.8 1.2 1.8 1.2 3.2v29.8zM253.1 348.1c0-9.6-4.5-14.6-15.2-14.6h-8.9v50.5h8.9v-21.3h2.4l4.6 21.3h8.9l-5.7-24.5c3.4-1.9 5-6.4 5-11.4zm-11 6.6c-1.3 1-3 1.1-4.2 1.1v-15c1.2 0 2.9.1 4.2 1 1.3 1 2.4 2.9 2.4 6.5s-1.1 5.5-2.4 6.4zM283.8 333.5h-9v50.5h20.8v-6.9h-11.8zM300.9 384h20.4v-7.6h-11.5v-13.9h8.3v-8.1h-8.3v-13.3h11.5v-7.6h-20.4zM334.8 333.5l-9.2 50.5h8.7l1.7-10.3h8.6l1.7 10.3h8.7l-9.2-50.5h-11zm2.4 32.4l2.6-16 .2-1.3h.5l.2 1.3 2.6 16h-6.1zM378.8 334.6c-1.7-1-3.9-1.7-6.9-1.7-3 0-5.3.7-6.9 1.7-1.7 1-2.7 2.4-3.5 3.8-.9 1.6-1.4 3.4-1.5 5.4v29.8c-.1 2.1.2 3.9 1 5.5.7 1.4 1.7 2.7 3.1 3.7 1.5 1.1 3.5 1.7 6.4 1.7 2.9 0 5.3-1.2 6.9-3l1.1 2.4h5.3v-25.2h-12.5v6.3h3.6v9.1c0 .8-.1 1.4-.3 1.9-.3 1-1.1 1.9-2.6 1.9-.7 0-1.3-.2-1.7-.6-.8-.8-1.2-1.7-1.2-3.2v-30.4c0-.7.1-1.3.3-1.9.3-.9 1.1-1.9 2.6-1.9.7 0 1.4.2 1.8.6.8.8 1.2 1.8 1.2 3.2v7.8h8.9v-7.8c-.1-2-.6-3.9-1.5-5.4-.7-1.3-1.9-2.6-3.6-3.7zM406.9 373.6c0 .8-.1 1.4-.3 1.9-.3 1-1.1 1.9-2.6 1.9-.7 0-1.3-.2-1.7-.6-.8-.8-1.2-1.7-1.2-3.2v-40.2h-9.1v40.2c.1 2.1.6 3.9 1.5 5.5.7 1.4 1.8 2.7 3.5 3.7 1.7 1.1 4 1.7 6.9 1.7 3 0 5.2-.6 6.9-1.7 1.7-1 2.8-2.3 3.6-3.7.9-1.6 1.4-3.4 1.5-5.5v-40.2h-8.9v40.2zM424 384h20.4v-7.6h-11.5v-13.9h8.3v-8.1h-8.3v-13.3h11.5v-7.6h-20.4zM484 357.3c2.1-1.6 3.5-3 4.4-4.6.9-1.7 1.2-3.4 1.2-5.8 0-5-1.4-8.3-4.1-10.5-2.7-2.1-6.9-3-12.2-3h-7.9v50.6h11c5.3-.2 8.8-1.9 10.9-4.5 2.1-2.6 2.9-6 2.9-9.8 0-2.5-.3-4.6-1-6.2-1.3-3.2-3-5.1-5.2-6.2zm-5.7 18.6c-1.5.9-3.2.8-4 .8v-15.5c.7 0 2.5-.1 4 .8s2.6 2.9 2.6 7-1.1 6-2.6 6.9zm0-22.3c-1.5.8-3.2.8-4 .8v-13.5c.7 0 2.5-.1 4 .8 1.5.8 2.6 2.5 2.6 6s-1.1 5-2.6 5.9zM503.9 333.5l-9.2 50.5h8.7l1.7-10.3h8.6l1.7 10.3h8.7l-9.2-50.5h-11zm2.4 32.4l2.6-16 .2-1.3h.5l.2 1.3 2.6 16h-6.1zM540.2 339.7c1.4 0 2.3 1 2.9 2.3.6 1.4.7 3.3.7 5l8.8-.7c0-2.8-.5-6.2-2.2-8.9-1.7-2.7-4.9-4.5-10.3-4.5-4.2.1-7.1 1.7-9 3.9-1.9 2.3-2.6 5.2-2.6 8 0 1.4.2 2.8.7 4.1.9 2.7 2.4 5.3 4.4 7.8 2 2.5 3.9 4.9 5.6 6.9.8 1 1.6 2.1 2.3 3 1.3 2 2.3 3.9 2.3 5.6 0 3.2-1 5.6-3.6 5.6-1.9 0-2.9-1.1-3.5-2.8-.7-1.6-.7-3.7-.7-5.8l-8.8.7c0 3.8.4 7.4 2.2 10.2 1.8 2.8 5 4.5 10.7 4.5 4.9 0 7.9-1.5 9.8-3.9 1.9-2.3 2.6-5.5 2.6-8.9 0-2.8-1.1-5.4-2.6-7.9-1.6-2.5-3.6-5.2-5.7-7.7-1.7-2.1-3.5-4.1-4.8-6.1-1.3-1.9-2.2-3.7-2.2-5.4-.1-2.9.6-4.9 3-5zM558.9 384h20.4v-7.6h-11.4v-13.9h8.2v-8.1h-8.2v-13.3h11.4v-7.6h-20.4zM604.6 357.3c2.1-1.6 3.5-3 4.4-4.6.9-1.7 1.2-3.4 1.2-5.8 0-5-1.4-8.3-4.1-10.5-2.7-2.1-6.9-3-12.2-3h-7.9v50.6h11c5.3-.2 8.8-1.9 10.9-4.5 2.1-2.6 2.9-6 2.9-9.8 0-2.5-.3-4.6-1-6.2-1.3-3.2-3-5.1-5.2-6.2zm-5.7 18.6c-1.5.9-3.2.8-4 .8v-15.5c.7 0 2.5-.1 4 .8s2.6 2.9 2.6 7-1.1 6-2.6 6.9zm0-22.3c-1.5.8-3.2.8-4 .8v-13.5c.7 0 2.5-.1 4 .8 1.5.8 2.6 2.5 2.6 6s-1.1 5-2.6 5.9zM624.4 333.5l-9.2 50.5h8.7l1.7-10.3h8.6l1.7 10.3h8.7l-9.2-50.5h-11zm2.4 32.4l2.6-16 .2-1.3h.5l.2 1.3 2.6 16h-6.1zM659.2 333.5h-8.9v50.5h20.7v-6.9h-11.8zM685.3 333.5h-9v50.5h20.8v-6.9h-11.8z"/></svg>