<svg xmlns="http://www.w3.org/2000/svg" viewBox="0 0 800 400" enable-background="new 0 0 800 400"><style type="text/css">.st0{fill:#FFFFFF;}</style><path class="st0" d="M697.4 191.5l27.8-.2 7.3-33.5-26.5.1zM631.9 216l2.4-42.7c-6.7 14.1-12.8 28.5-18.6 42.9 5.2.3 16.2-.2 16.2-.2zM543.8 128.8l-.4 1.9 40.1-.2 13.8 19.9-7.9 30.2-24.6.1 4.6-21.7-28-.3-20.4 82.6 28.5-.1 7.9-30.9 24.6.1-9.1 38.1-22.2 19.8-40-.1-.7 3.1h256.2l33.8-142.5h-256.2zm208.4 61.3l-15.1 14.9 7.6 11.8-11.9 51-25.1.1 10.6-47.4-27.8-.3-12.3 47.4-48.8.1.3-24.4-25.8-.1-11 24.6-25.8.1 58.3-137.7h37.3l-6.1 121.8 30.3-122 60.2.1 14.6 20.8-9.5 39.2zM290.4 268.8l-4.9-81.7-20.7 81.6-22.6.1 33-136.6.7-.9 29.8-.1.6 1.1s5.6 77.7 6 77.2c7.3-25.7 19.6-78 19.6-78h23.3s-29.6 123.1-29.4 123.3l54.2-123.7h14l1-2.3-153.8.1-34.6 142.3 127.4.1 1.2-2.7-44.8.2zM506.7 268.2l-12.4-18.9 23.7-98.5 22.4-20.1h2.9l.4-1.9h-148.7l-1 2.3h20.7c-.8 23-7.8 137.2-7.8 137.2l-25.3-.3 1-23.7-26.4-.1-11.2 24.3h-9.9l-1.2 2.7h175.8l.7-3.1-3.7.1zm-39.8.4l-42.3-.1-12.7-19.2 4.8-20.7 23.3.1-1.9 11.8 28.9-.3 6.4-27.3-1.3-.9-35.1.2-12.4-18.9c3.1-14.4 10.3-42.8 10.3-42.8l21.9-19.4 44.1-.3 12.9 18.2-5 19.6-24.2.2s2.1-7 2-10.6c-9.2-.6-28.5.1-28.5.1l-6.4 26.8 36.4.2 12.2 18.5-10.7 44.2-22.7 20.6zM384.5 217.8l2.4-44.5-18.9 44.7zM34.6 128.8l-34.6 142.3 9.5.1 34.1-142.5zM69 128.7l-34.8 142.5h12.9l34.3-142.5zM103.4 128.7l-34.4 142.5 14.6.1 34.4-142.4zM137.8 128.7l-34.6 142.5 21.6-.1 33.8-142.4zM171.4 128.7l-34.3 142.7 25.1-.3 34.8-142.3zM207 128.7l-35.1 142.5 26.9-.1 33.9-142.5zM779.6 256.3c-3.7 0-6.7 3.1-6.7 6.9 0 3.9 3 6.9 6.7 6.9s6.7-3.1 6.7-6.9c-.1-3.9-3-6.9-6.7-6.9zm0 12.7c-3.1 0-5.6-2.6-5.6-5.9 0-3.2 2.4-5.8 5.6-5.8 3.1 0 5.5 2.6 5.5 5.8 0 3.3-2.4 5.9-5.5 5.9zM781.9 264.8c-.3-.7-.7-1.6-1.5-1.7 1-.2 1.9-.8 1.9-2 0-.5-.3-1.2-.8-1.5-.6-.3-1.4-.3-2.1-.3h-3v.4h.3c.5 0 .6.1.6.6v5.5c0 .5-.1.5-.6.5h-.3v.4h3v-.4h-.3c-.4 0-.5-.2-.5-.6v-2.4h.3c.3 0 .7 0 .9.3.4.4.9 2.3 1.4 2.8.2.2.3.2.6.3h1.3v-.4c-.3 0-.5-.1-.6-.3l-.6-1.2zm-2.9-1.9h-.4v-2.4c0-.3-.1-.7.3-.7h.4c1 0 1.6.5 1.6 1.6s-.8 1.5-1.9 1.5z"/></svg>