<svg xmlns="http://www.w3.org/2000/svg" viewBox="0 0 800 400" enable-background="new 0 0 800 400"><style type="text/css">.st0{fill:#FFFFFF;}</style><path class="st0" d="M484 0h-190.6c-27.4-.7-49.6 21.6-49.6 49v298.9c0 27.4 22.2 49.6 49.6 49.6h190.6c27.4 0 49.6-22.2 49.6-49.6v-298.9c0-27.4-22.2-49.7-49.6-49zm38.3 347.8c0 21.2-17.1 38.3-38.3 38.3h-190.6c-21.2 0-38.3-17.1-38.3-38.3v-298.8c0-21.2 17.1-38.3 38.3-38.3h190.6c21.2 0 38.3 17.1 38.3 38.3v298.8zM484 16.5h-190.6c-17.9 0-32.4 14.5-32.4 32.5v298.9c0 17.9 14.5 32.5 32.5 32.5h75.9c-1.1-4.4-3.1-8.3-3.3-13.1.1-6.9 4-12.7 9-17.5.3-1.8-.1-3.6 1-5.2 1.4-4.1 5.7-4 9-5 8.3-7.4 17.1-13.2 26.7-17.2l7.6-8.7c3.2-2.5 5.9-7.6 10.6-7.2 1.7-1.5 5.5-1 5-4.4 0-3.8 6.9-4.3 3-8.5 2.8-6.1-3.6-9.9-4-15.6-4-6.1-3.9-14.1-10.3-18.9-8-9.9-6.8-24.3-5-36.7.7-19-22.7-27.1-21.8-46.3.6-5.7-3-14.6 3-18.9-4.7-2.8-11.4-7.2-11.6-13.5-1-6.2 2.1-12.8 7.6-17 5.9-3.2 13.2-2.6 19.4-.3 2.5 6.8 8.5 12 10.6 18.9l1 .3c8.5-3.6 18.1-4.6 25.2-11.6 7.7-8.1 21.9-10.8 22.7-23.8 3.2-8.7-3.6-16.3-1.2-25.4l-76.5-48.2c-1.3-.8-3.4-.6-4.1-.2-4.7 3.4-6.1 12.6-13 10.7-1.8-1.1-4.6-3.3-3.7-4.7 4.1-4.5 10.5-12.8 16.3-11.2l81.7 49.9c4.8 1.7 10.3-1.1 14.9 2.6 4.4 2.1 3.3 7 3.9 11-5.2 16.4-9.9 33.2-17.8 48.5-10.6 13-16.1 27.8-27.1 40.4l-.3 2.3c4.3 11.9 7.6 24.3 9.5 37.1 6.8 22.7 12.4 45.9 15.6 70.1-3.6 22-6.6 44.8-7.6 67.4-1.9 3.3-6.6 1.8-9 4 1 4 5.9 5.5 8 8.5.4 5-5.1 5.4-8.1 7.2h27.7c17.9 0 32.5-14.5 32.5-32.5v-298.7c0-18-14.6-32.5-32.5-32.5zm-140 46c2.8 0 7.1.9 9.5 2.2l2.2-1.8h3.2l.2 10c0 2.4-3 2.9-4.1 1.2-1.8-4.9-4.1-6.7-10.4-6.7-6.4 0-7.9 7.8-7.9 12.7 0 5.3 2.8 11.8 9.4 11.8 3.2 0 4.8-2.3 4.8-5.6 0-2.6-2.2-3.6-4.6-3.6v-3.5h17.5v3.5l-.7.1c-3.5.5-3.2 2-3.2 5v7.2c0 1.4-1.9 1.7-3.9.6l-2.7-1.6c-1.4.8-2.4 1.6-3.7 2.1-1.6.6-4.6.6-6.5.6-10.2 0-16.9-7.7-16.9-17 0-9.8 7.5-17.2 17.8-17.2zm-53.8 28.9c4.2-.3 5.7-1.3 5.7-4.7v-15.3c0-3.4-.1-4.4-4.4-4.7v-4.2l7.2.4c5.1 0 15.6-1.9 20.6 1 3.2 1.9 5.2 5.1 5.2 8.6 0 8.2-7.9 10.3-15.1 10.3h-4.4v4c0 3.4.1 4.4 6.6 4.7v3.9h-21.4v-4zm72.9 273.6h-11.3c-5.8 0-16.2-.9-19.1-8.3v7.5h-42.3v-15.7h5.5c1.7 0 2-1 2-2.5v-30.7c0-1.3-.2-2.7-2-2.7h-5.9v-15.8h19c-8.8-3.6-11.2-9.4-11.2-16.4v-29.2c0-1.7-.3-2.7-2.3-2.7h-5.5v-16h17.1c-10.1-4.9-16.9-14.8-16.9-30.5 0-15.4 7-25.5 17.4-30.5h-7.1v-14.5h9.2c2.7 0 3.6-1.4 3.6-4.7v-27.5c0-2-.5-2.5-1.9-2.5-3.3 0-6 5.7-6 13.7h-15.6v-29.6h71.6v29.6h-15.7c0-7.6-1.7-13.7-5.2-13.7-1.2 0-1.9.4-1.9 2.5v27.5c0 3.7.9 4.7 3.6 4.7h9.4v14.5h-9.1c10.4 5 17.4 15.1 17.4 30.5 0 15.7-6.8 25.5-16.9 30.5h19.2v16h-5.5c-1.9 0-2.3 1-2.3 2.7v29.2c0 7.4-3.6 15-11.1 17.1 6.9 1.4 11 4.7 13.8 11.4 2.7 6.8.3 14-4.5 19-.9.9-2.2 1.5-2.2 1.5 2.8 1.1 4.4 6.1 4.4 11.5l.2 6.9c.1.9.6 1.4 2.8 1.4h5.2v15.8zm17.8-302.6h8.5l11.1 24.6c1.4 3 1.5 3.8 5.3 4.4h.6v3.8h-19.9v-3.8c1.1-.1 4.5 0 4.5-1.5 0-.7-.5-1.9-.8-2.5l-1.5-3.5h-11.7l-1.5 3.5c-.3.6-.7 1.5-.7 2.2 0 1.6 3 1.6 4.3 1.8h.5v3.8h-16.9v-3.8c4.8-.4 5.9-3 7.5-6.3l10.7-22.7zM311.2 76.5c1.6-.7 1.9-2.5 1.9-4.1 0-4.1-2.4-5.3-6.2-5.3-1.3 0-1.8.5-1.8 1.1v8.9h1.3c1.9 0 3.5-.1 4.8-.6zM382.9 70.8l-4.2 9.1h8.3zM347.1 167.9v-7.2h-10c-1.8 0-3.2-2.1-3.2-4.2v-35.7c0-1.8 2.4-2.2 4.9-2.2 5.2 0 10.6 4.5 10.6 13.7h8.2v-22.3h-63.9v22.3h8.2c0-9.2 5.3-13.7 10.6-13.7 2.5 0 4.9.4 4.9 2.2v35.7c0 2.1-1.4 4.2-3.2 4.2h-10v7.2h42.9zM356.1 201.9c0-20.6-13.9-30.6-31.1-30.6-17.2 0-31.1 10-31.1 30.6 0 21.3 13.9 30.6 31.1 30.6 17.2 0 31.1-9.3 31.1-30.6zm-43.2 0c0-17.6 5.6-22.5 12.5-22.5s12.5 3.5 12.5 22.5c0 16.9-5.6 22.5-12.5 22.5-6.9.1-12.5-4.1-12.5-22.5zM333.2 201.9c0-15.4-3.5-18.3-7.9-18.3s-7.9 4-7.9 18.3c0 14.8 3.5 18.3 7.9 18.3s7.9-4.6 7.9-18.3zM350.2 279.1v-30.2c0-3.6 1.7-4.2 3.5-4.2h4l-.1-8.6h-25.5v8.6h4.6c4.6 0 4.1 2.1 4.1 4.7v31.6c-.4 3.4-3.3 7.3-11.4 7.3-8.1 0-11.9-3.2-11.9-7.7v-31.8c0-3.6 1.7-4.2 3.5-4.2h5.6v-8.6h-32.6v8.6h3.5c4.6 0 4.1 2.1 4.1 4.7v31.5c0 8.5 8 16 26.3 16 19.5.1 22.3-9.1 22.3-17.7zM322.4 251.4v27.6c0 2.9 3.1 5.3 6.9 5.3 3.8 0 6.9-2.4 6.9-5.3v-27.6c0-1.6-.8-2.9-1.9-2.9h-10c-1.1.1-1.9 1.4-1.9 2.9zM351.5 351c-1.9-4.2.5-11.9-2.2-16.8-1.3-2.7-4.4-4.3-6.5-5.2 2.4-.7 5.2-2.2 7.1-3.7 4.9-4.2 4.9-12.1 1.9-17.9-2.7-4.6-7.5-6.7-14.8-6.7l-43.2-.1v8.4l5.4-.1c1.4 0 2.9 1.5 2.9 3.1v37.2c0 1.6-1.5 3.1-2.9 3.1l-5.4-.1v8.4h34.8v-8.4h-6.6c-1.4 0-3-1.8-3-3.4v-15.3h8.9c2.7 0 5.5 1.8 5.9 6.3.4 5.9-.3 8.9 1.7 14.1 2.7 5.6 7.8 7.2 13.3 7.2h10.4v-8.3c-2.6-.1-6.6.1-7.7-1.8zm-17.2-28.3c-1.1 1-3.1 1.7-5.4 1.7h-9.9v-15.5h9c3.2 0 7.7 1.5 8.6 5.3.4 3 .1 6-2.3 8.5zM327.6 337.6h-4.3l-.1 8.4c0 1.5 1.1 1.9 2 1.9h4.6l-.2-7.5c0-2-.4-2.8-2-2.8zM327 312.5h-4v8.2h5.4c1.8 0 3.9-1.5 3.9-3.8 0-1.4-.6-2.4-1.3-3.1-1-.8-2.1-1.3-4-1.3zM436.5 161.2c-.1 2.2 1.4 3.7 2.6 5.2 4.1-3.5 8-8.3 10.9-12.8-4.5 2.2-9.1 4.7-13.5 7.6zM407.4 360.3c-5.1-1.2-9.2-5-14.2-6.3-8 7.3-16.1 13.8-19.6 23.6-.4 1.1-.8 2.8-.8 2.8l72.7-.1c-.7-1.9-3.1-2-4.4-3.8-1.9-19.2 1.1-38.9 6.2-56.5-12 14.1-28.4 25.7-39.9 40.3zM551.2 386.9c0-1.9-1-3.1-4.1-3.1h-5.1v11.6h1.4v-5.3h2.6l3.3 5.3h1.7l-3.5-5.3c2.1-.1 3.7-.9 3.7-3.2zm-5.6 2.1h-2.2v-4.1h3.3c1.4 0 2.9.2 2.9 2 0 2.3-2.4 2.1-4 2.1zM545.9 379.3c-5.7 0-10.4 4.7-10.4 10.3 0 5.7 4.6 10.4 10.4 10.4 5.7 0 10.3-4.6 10.3-10.4 0-5.7-4.6-10.3-10.3-10.3zm0 19.3c-5.1 0-8.7-3.9-8.7-9 0-5 3.7-9 8.7-9 5 0 8.7 3.9 8.7 9s-3.7 9-8.7 9z"/></svg>