<svg xmlns="http://www.w3.org/2000/svg" viewBox="0 0 800 458" enable-background="new 0 0 800 458"><style type="text/css">.st0{fill-rule:evenodd;clip-rule:evenodd;fill:#FFFFFF;} .st1{fill-rule:evenodd;clip-rule:evenodd;fill:#6FBA4E;} .st2{fill-rule:evenodd;clip-rule:evenodd;fill:#2CB34A;}</style><path class="st0" d="M10.1 209.2h166.7l-10.1 47.9h-59.4l-30.3 139.4h-49.4l30.8-139.4h-58.4l10.1-47.9zM201.6 257.1c-.4-.8 1.7-47.2 48.5-47.4 45.7-.1 58.9 0 89.7 0 30.8 0 31.3 20.8 30.8 28.7-.5 8-2.7 18.6-2.7 18.6s-166.8-.5-166.3.1zM403.4 257.1c-.4-.8 6.5-47.2 53.3-47.4 45.7-.1 54.1 0 84.9 0s31.3 20.8 30.8 28.7c-.5 8-2.7 18.6-2.7 18.6s-166.9-.5-166.3.1zM195.8 280s-11.2 54.9-16.9 78.6c-5.8 23.8 6.8 38.7 29.1 38.7h92.8c32.5 0 40.2-21.8 42.4-29.3 2.2-7.6 8.2-36.5 11.9-56.3 3.8-19.8-11-32.1-30.1-32.1h-58.1l-10.6 47.9h48l-4.6 22.8-70.7-.2 14.9-70.7-48.1.6zM396.5 279.8s-4.2 21.8-2 29.3c2.2 7.6 12.7 18.4 29.5 18.4h81l-5 22.6h-118.6s-6.8 26.5 2 36.3c8.8 9.8 21.1 11.4 33.3 11.4h82.4c17.5 0 37.6-8.2 42.8-25.5 5.2-17.4 8.8-36.3 13.9-59.1 5.2-22.8-13.1-33.3-29.7-33.3-16.4-.1-129.9.2-129.6-.1zM597.9 280l-25.5 117.8h48l25.5-118.2s-48 .8-48 .4zM603.5 256.9s3.2-26.7 16.1-36.7c12.9-10 28.1-10.6 46.2-10.6h98.6c22.1 0 35.6 12 30.7 35.1-5 23.2-32.3 152.9-32.3 152.9h-48.6l30.8-141.1h-23.3l-24.7 117.5h-49l25.5-117-70-.1zM31.9 434.4h-7.8v-4.2h20.6v4.2h-7.9v23.1h-4.9v-23.1zM64.5 446l-2.1-6.7c-.5-1.7-1-3.5-1.4-5.1h-.1c-.4 1.6-.8 3.5-1.3 5.1l-2.1 6.7h7zm-7.8 3.8l-2.3 7.7h-5.1l8.7-27.3h6.4l8.9 27.3h-5.3l-2.5-7.7h-8.8zM88.3 430.2v27.3h-5v-27.3h5zM100.3 430.2h5v23.1h11.2v4.2h-16.2v-27.3zM146.8 456.3c-1.7.6-5.1 1.5-8.8 1.5-4.6 0-8.1-1.2-10.7-3.6-2.4-2.3-3.8-5.9-3.8-10.1 0-8.6 6.2-14.2 15.2-14.2 3.4 0 6 .7 7.2 1.3l-1.1 4c-1.5-.6-3.3-1.2-6.2-1.2-5.8 0-9.9 3.4-9.9 9.8 0 6.2 3.8 9.9 9.5 9.9 1.8 0 3.1-.2 3.8-.6v-6.8h-4.8v-3.9h9.6v13.9zM171.5 446l-2.1-6.7c-.5-1.7-1-3.5-1.4-5.1h-.1c-.4 1.6-.8 3.5-1.3 5.1l-2.1 6.7h7zm-7.8 3.8l-2.3 7.7h-5.1l8.7-27.3h6.4l8.9 27.3h-5.3l-2.5-7.7h-8.8zM192.2 434.4h-7.7v-4.2h20.5v4.2h-7.8v23.1h-5v-23.1zM219.5 430.2v27.3h-4.9v-27.3h4.9zM231.5 457.5v-27.3h5.7l7 11.7c1.8 3 3.4 6.2 4.7 9.2h.1c-.3-3.6-.4-7.2-.4-11.4v-9.5h4.6v27.3h-5.2l-7.1-12c-1.7-3-3.6-6.4-4.9-9.4h-.1c.2 3.5.2 7.1.2 11.6v9.8h-4.6zM287.1 456.3c-1.7.6-5.1 1.5-8.8 1.5-4.6 0-8.1-1.2-10.7-3.6-2.4-2.3-3.8-5.9-3.8-10.1 0-8.6 6.1-14.2 15.2-14.2 3.4 0 6 .7 7.2 1.3l-1.1 4c-1.5-.6-3.3-1.2-6.2-1.2-5.8 0-9.9 3.4-9.9 9.8 0 6.2 3.8 9.9 9.5 9.9 1.8 0 3.1-.2 3.8-.6v-6.8h-4.8v-3.9h9.6v13.9zM313 452.1c1.6.9 4 1.7 6.6 1.7 3.2 0 5-1.5 5-3.7 0-2.1-1.4-3.3-4.9-4.5-4.5-1.6-7.4-4-7.4-7.9 0-4.5 3.7-7.9 9.6-7.9 3 0 5.1.6 6.6 1.4l-1.2 4c-1-.5-2.9-1.3-5.4-1.3-3.2 0-4.5 1.7-4.5 3.3 0 2.1 1.6 3.1 5.2 4.5 4.7 1.8 7 4.2 7 8.1 0 4.4-3.3 8.2-10.4 8.2-2.9 0-5.9-.8-7.4-1.7l1.2-4.2zM345.4 443.3c.6.2 1.4.2 2.4.2 3.7 0 6-1.8 6-5 0-3-2.1-4.7-5.5-4.7-1.4 0-2.3.1-2.9.2v9.3zm-4.9-12.7c1.8-.3 4.2-.6 7.6-.6 3.6 0 6.3.8 8.1 2.2 1.6 1.3 2.7 3.5 2.7 6 0 2.6-.8 4.7-2.3 6.2-2 2-5.1 2.9-8.6 2.9-.9 0-1.8 0-2.4-.2v10.3h-4.9v-26.8h-.2zM373.2 444c0 5.6 2.8 10 7.6 10s7.5-4.5 7.5-10.2c0-5.2-2.5-10-7.5-10-4.9 0-7.6 4.5-7.6 10.2zm20.4-.4c0 9.2-5.5 14.4-13.1 14.4-7.7 0-12.5-5.9-12.5-13.9 0-8.4 5.3-14.3 12.9-14.3 8-.1 12.7 6 12.7 13.8zM409.1 442.6h3c3.4 0 5.5-1.8 5.5-4.5 0-3-2.1-4.4-5.3-4.4-1.6 0-2.6.1-3.1.2v8.7h-.1zm-4.9-12c1.9-.3 4.7-.6 7.5-.6 3.9 0 6.6.6 8.4 2.2 1.5 1.3 2.3 3.2 2.3 5.5 0 3.5-2.4 5.9-4.9 6.9v.1c1.9.7 3.1 2.6 3.8 5.3.8 3.4 1.6 6.6 2.1 7.6h-5.1c-.4-.8-1.1-3-1.8-6.4-.8-3.6-2.1-4.7-4.9-4.8h-2.5v11.2h-4.9v-27zM439 434.4h-7.8v-4.2h20.6v4.2h-7.9v23.1h-4.9v-23.1zM460.8 452.1c1.6.9 4 1.7 6.6 1.7 3.2 0 5-1.5 5-3.7 0-2.1-1.4-3.3-4.9-4.5-4.5-1.6-7.4-4-7.4-7.9 0-4.5 3.7-7.9 9.6-7.9 3 0 5.1.6 6.6 1.4l-1.2 4c-1-.5-2.9-1.3-5.4-1.3-3.2 0-4.5 1.7-4.5 3.3 0 2.1 1.6 3.1 5.2 4.5 4.7 1.8 7 4.2 7 8.1 0 4.4-3.3 8.2-10.4 8.2-2.9 0-5.9-.8-7.4-1.7l1.2-4.2zM526 446.4c-.2-3.5-.4-7.8-.3-11.5h-.1c-.9 3.3-2 7-3.2 10.5l-4 11.8h-3.8l-3.6-11.7c-1.1-3.5-2-7.2-2.8-10.6h-.2c-.1 3.6-.3 7.9-.5 11.6l-.6 11h-4.7l1.8-27.3h6.6l3.6 11c1 3.2 1.8 6.4 2.5 9.5h.1c.7-3 1.7-6.3 2.7-9.5l3.8-10.9h6.5l1.6 27.3h-4.9l-.5-11.2zM555.8 446l-2.1-6.7c-.5-1.7-1-3.5-1.4-5.1h-.1c-.4 1.6-.8 3.5-1.3 5.1l-2.1 6.7h7zm-7.8 3.8l-2.3 7.7h-5.1l8.7-27.3h6.4l8.9 27.3h-5.3l-2.5-7.7h-8.8zM579.5 442.6h3c3.4 0 5.5-1.8 5.5-4.5 0-3-2.1-4.4-5.3-4.4-1.6 0-2.6.1-3.1.2v8.7h-.1zm-5-12c1.9-.3 4.7-.6 7.5-.6 3.9 0 6.6.6 8.4 2.2 1.5 1.3 2.3 3.2 2.3 5.5 0 3.5-2.4 5.9-4.9 6.9v.1c1.9.7 3.1 2.6 3.8 5.3.8 3.4 1.6 6.6 2.1 7.6h-5.1c-.4-.8-1.1-3-1.8-6.4-.8-3.6-2.1-4.7-4.9-4.8h-2.5v11.2h-4.9v-27zM603.9 430.2h4.9v12.6h.1c.6-1.1 1.3-2 2-3l7.1-9.6h6.1l-9.4 11.6 10 15.7h-5.7l-7.7-12.5-2.4 2.9v9.6h-4.9v-27.3h-.1zM649 445.4h-10.3v8h11.5v4.1h-16.5v-27.3h15.9v4.1h-10.9v7h10.3v4.1zM666.5 434.4h-7.7v-4.2h20.5v4.2h-7.8v23.1h-5v-23.1zM693.8 430.2v27.3h-4.9v-27.3h4.9zM705.8 457.5v-27.3h5.7l7 11.7c1.8 3 3.4 6.2 4.7 9.2h.1c-.3-3.6-.4-7.2-.4-11.4v-9.5h4.6v27.3h-5.1l-7.1-12c-1.7-3-3.6-6.4-4.9-9.4h-.1c.2 3.5.2 7.1.2 11.6v9.8h-4.7zM761.4 456.3c-1.7.6-5.1 1.5-8.8 1.5-4.6 0-8.1-1.2-10.7-3.6-2.4-2.3-3.8-5.9-3.8-10.1 0-8.6 6.1-14.2 15.2-14.2 3.4 0 6 .7 7.2 1.3l-1.1 4c-1.5-.6-3.3-1.2-6.2-1.2-5.8 0-9.9 3.4-9.9 9.8 0 6.2 3.8 9.9 9.5 9.9 1.8 0 3.1-.2 3.8-.6v-6.8h-4.8v-3.9h9.6v13.9z"/><path class="st1" d="M53.4 173.4l41.5 17 13.9-35.9 37.8 18.7 16.8-35.5 36.2 21 19.3-34 34.1 24.2 23.3-32.7 31.6 26.5 26.5-31.9 34.3 27.7 32.2-30.7 34.1 29.1 33.8-31.5 35.7 29.1 27.3-32.5 32.8 26.3 25.9-35.1 36.3 23.4 21.3-37.6 38.4 17.6 18.1-40.3 40 13.8 12.6-42.6 42.8 8.2-46-13.3-13.9 37.9-41.5-16.2-17.7 36.9-38.8-20.7-20.9 33.9-35.1-23.5-23.9 31.7-33-26.6-27.7 31.6-34.5-28-32.6 30.8-34.5-29-32.8 31.6-36.3-29-25.5 32.6-33-26.4-23.7 35.5-35.5-22.5-19.1 37.1-36.6-19-15.7 38.8-37.7-15.4-11.7 40.1-38.9-11.2z"/><path class="st2" d="M168.1 119.1l28.3 2.6 11.4-21.3 26.1 5.2 14.5-20 24.7 7.2 16.1-18.4 23.1 9.8 18.7-15.7 22.1 12.5 20.5-15.1 24.7 14.1 25.1-13.7 24.7 15.9 25.5-14.3 26.1 14.3 21.7-15.1 23.7 12.9 20.3-18.3 25.3 9.3 18.5-21.3 26.5 5.4 14.9-24.8h28.1l10.2-25.3 26.9-5-30.5.4-11.4 22.8-28.8-1.6-14 20.9-27.6-6.4-16.2 18.6-25.1-10.8-19.3 16.8-22.5-13.6-21.5 15-25.1-14.2-24.7 13.4-25.1-14.8-24.9 14.6-26.8-15.6-20.6 16.4-23.3-12.6-19.5 18.6-24.5-10-16.1 21.7-25.9-6-12.9 23-25.3-3.2-10 24.2-26.1 1.5z"/></svg>